PathFileType  4	(X/Y/Z) C:\Users\antoi\Documents\MyRepositories\mobilecap\ResultsAnalysis
DataRate	CameraRate	NumFrames	NumMarkers	Units	OrigDataRate	OrigDataStartFrame	OrigNumFrames
100.0	100.0	4	51	mm	100.0	118	134
Frame#	Time	r_knee			r_shank_antsup			r_ankle			r_calc			r_5meta			r_toe			L_knee			L_shank_antsup			L_ankle			L_calc			L_5meta			L_toe			r_sh2			r_sh3			r_sh4			L_sh2			L_sh3			r_thigh1			r_thigh2			r_thigh3			r_thigh4			r_thigh5			L_thigh1			L_thigh2			L_thigh3			L_thigh4			r.ASIS			r.PSIS			L.ASIS			L.PSIS			C7			R_Shoulder			L_Shoulder			R_Sternum			L_Sternum			R_humerus			R_elbow_med			R_elbow_lat			R_forearm			R_wrist_radius			R_wrist_ulna			L_humerus			L_elbow_med			L_elbow_lat			L_forearm			L_wrist_radius			L_wrist_ulna			R_HJC			L_HJC			R_HJC_reg			L_HJC_reg			
		X1	Y1	Z1	X2	Y2	Z2	X3	Y3	Z3	X4	Y4	Z4	X5	Y5	Z5	X6	Y6	Z6	X7	Y7	Z7	X8	Y8	Z8	X9	Y9	Z9	X10	Y10	Z10	X11	Y11	Z11	X12	Y12	Z12	X13	Y13	Z13	X14	Y14	Z14	X15	Y15	Z15	X16	Y16	Z16	X17	Y17	Z17	X18	Y18	Z18	X19	Y19	Z19	X20	Y20	Z20	X21	Y21	Z21	X22	Y22	Z22	X23	Y23	Z23	X24	Y24	Z24	X25	Y25	Z25	X26	Y26	Z26	X27	Y27	Z27	X28	Y28	Z28	X29	Y29	Z29	X30	Y30	Z30	X31	Y31	Z31	X32	Y32	Z32	X33	Y33	Z33	X34	Y34	Z34	X35	Y35	Z35	X36	Y36	Z36	X37	Y37	Z37	X38	Y38	Z38	X39	Y39	Z39	X40	Y40	Z40	X41	Y41	Z41	X42	Y42	Z42	X43	Y43	Z43	X44	Y44	Z44	X45	Y45	Z45	X46	Y46	Z46	X47	Y47	Z47	X48	Y48	Z48	X49	Y49	Z49	X50	Y50	Z50	X51	Y51	Z51	

118	1.17000000	1442.40188	490.70472	-58.03806	1492.72417	431.58096	-78.74860	1479.98876	91.75635	-105.32840	1418.43085	64.79345	-152.45161	1582.50132	41.66376	-67.43800	1635.79031	73.06412	-117.16599	1186.25345	476.53400	-325.54186	1158.32857	379.13858	-333.74983	927.57926	171.38265	-290.20723	856.02859	171.51735	-234.25884	966.73822	54.72532	-337.59589	1026.44980	55.80813	-292.64411	1490.28854	315.51426	-62.42190	1413.88836	427.45062	-50.20782	1414.98886	314.77376	-56.84888	1094.12690	441.82149	-325.81107	1018.91214	345.19962	-324.97669	1399.87072	810.39486	-17.83710	1432.41651	701.11721	-29.18159	1330.05411	665.11945	-9.46298	1293.90499	775.39225	4.51488	1387.33912	663.71946	1.51303	1273.47201	730.30081	-375.80514	1256.40040	595.30661	-352.12174	1171.18770	747.77403	-324.07325	1158.61872	608.77621	-307.42379	1383.49883	949.90410	-64.81869	1190.50707	990.06606	-128.42592	1371.68353	918.34782	-313.30682	1178.86983	989.61458	-228.95424	1180.69223	1387.40913	-222.60454	1266.56431	1365.05695	-32.20807	1285.27339	1358.81306	-389.80898	1321.60462	1370.90658	-186.07181	1329.61066	1371.23381	-227.36773	1255.14965	1228.20760	29.58894	1186.05687	1025.02635	-30.59999	1187.35999	1042.75153	40.89571	1218.89913	913.53247	82.13943	1207.30843	775.16996	103.61156	1178.72036	782.24961	118.98445	1343.78531	1258.45602	-446.36259	1410.57849	1027.31961	-399.68184	1418.09821	1061.04337	-473.25616	1532.44911	1059.15066	-458.45460	1682.58422	1013.89296	-451.64289	1673.32859	989.22268	-474.58703	1302.62107	871.93151	-73.98049	1287.03420	853.96061	-279.08740	1313.19159	862.89314	-90.64409	1294.16316	862.16021	-255.03806	
119	1.18000000	1453.12929	491.41980	-57.02315	1502.17382	430.88823	-78.27266	1480.92399	91.80388	-105.74241	1418.64634	64.93079	-152.49054	1582.82847	41.26415	-67.82288	1636.29431	71.94516	-117.65344	1207.13754	475.29314	-327.25332	1176.72783	378.98003	-335.59875	939.58883	179.31018	-292.11938	869.63830	185.03966	-235.39380	970.29646	58.96654	-337.47633	1030.01720	56.32109	-293.24905	1497.15496	314.90862	-62.43911	1423.51304	428.54723	-49.27516	1421.96226	315.87931	-56.17236	1114.73486	443.71375	-326.79452	1036.32167	349.86129	-326.07409	1412.85203	811.57908	-15.77570	1444.63284	702.12779	-27.35887	1341.91972	666.43934	-7.61888	1306.54746	777.15073	6.42288	1399.25984	664.93862	3.19011	1289.59088	730.72543	-374.53238	1275.26364	595.09117	-352.46697	1187.23142	745.65741	-322.23851	1177.44839	606.24992	-307.34854	1396.90071	951.75419	-63.27524	1203.59555	991.30532	-126.59625	1384.57467	919.79456	-311.64905	1191.76546	990.11011	-227.04572	1192.74586	1388.44353	-220.52331	1280.01412	1365.98447	-30.66876	1296.48604	1359.78097	-388.38646	1334.02429	1372.02225	-184.80815	1341.71215	1372.39373	-226.17600	1269.32129	1228.99539	31.00983	1200.30290	1025.81103	-29.16721	1201.88052	1043.48717	42.41419	1233.68338	914.19755	83.30158	1221.38294	775.39922	104.50188	1193.26866	782.87070	120.27971	1353.83223	1258.61163	-445.01237	1417.24394	1026.51749	-397.82078	1425.13724	1059.91063	-471.55526	1539.51908	1057.38407	-456.13101	1689.38400	1011.24875	-448.11347	1680.18261	986.75768	-471.58198	1316.30656	873.52560	-72.08962	1300.32814	855.03014	-277.12342	1326.61356	865.20961	-88.41680	1307.26402	863.26405	-252.73537	
120	1.19000000	1463.02823	491.90989	-56.04119	1510.82078	430.05121	-77.60209	1481.60132	91.86987	-106.12544	1418.75656	65.00445	-152.51134	1583.10346	41.02419	-68.25572	1636.60240	71.20256	-118.07838	1228.85490	473.94327	-329.18888	1196.14432	378.86975	-337.68787	953.06816	187.44503	-294.15830	885.33776	199.04288	-236.57470	974.64488	64.05160	-337.33239	1034.08404	57.39528	-293.92263	1503.19161	314.22399	-62.37072	1432.22409	429.48359	-48.59197	1428.08208	316.88188	-55.76968	1136.43410	445.55029	-327.96950	1054.92888	354.50848	-327.22073	1425.67694	812.54818	-13.76867	1456.49564	702.84194	-25.46876	1353.32934	667.68129	-5.86525	1318.95835	778.92795	8.20853	1410.67688	665.98469	4.81350	1305.92550	731.16900	-373.45738	1294.61023	594.92682	-353.05469	1203.52175	743.29083	-320.56166	1196.80068	603.52865	-307.56314	1410.05914	953.52648	-61.57149	1216.51601	992.53389	-124.88830	1397.53667	921.38440	-309.76135	1204.43851	990.66193	-225.26292	1204.78778	1389.56133	-218.41603	1293.48240	1367.07151	-29.13530	1307.43429	1360.74381	-386.98813	1346.34870	1373.20985	-183.59503	1353.70691	1373.59188	-225.04489	1283.61231	1229.93743	32.46013	1214.68055	1026.70518	-27.60759	1216.58702	1044.31985	44.03684	1248.90772	915.00191	84.52133	1236.27290	775.82734	105.42369	1208.51311	783.55734	121.61531	1363.50381	1258.70957	-443.70916	1423.42897	1025.69449	-396.00737	1431.73783	1058.75106	-469.89273	1546.14149	1055.36283	-453.92276	1695.64934	1008.00007	-444.72947	1686.41668	983.73728	-468.77364	1329.70200	875.07403	-70.20081	1313.63356	856.19857	-275.19060	1339.96233	867.55959	-86.03968	1320.21251	864.50753	-250.19660	
121	1.20000000	1472.00511	492.13720	-55.07189	1518.63656	429.05100	-76.67542	1482.08986	91.91197	-106.48583	1418.83258	65.04995	-152.53652	1583.33759	40.86345	-68.64431	1636.80175	70.68758	-118.38396	1251.22573	472.55085	-331.23845	1216.45718	378.83882	-339.90117	967.90440	195.71012	-296.16100	902.97685	213.17299	-237.72865	980.08803	70.03141	-337.19972	1039.01951	59.25255	-294.68276	1508.42079	313.42764	-62.10315	1439.98166	430.20848	-48.04902	1433.37886	317.72252	-55.53689	1159.06848	447.35035	-329.23884	1074.60939	359.11090	-328.30450	1438.28238	813.24314	-11.77370	1467.94536	703.18547	-23.45562	1364.24513	668.89547	-4.23725	1331.06754	780.69417	9.85814	1421.50344	666.81471	6.39178	1322.30275	731.58466	-372.62120	1314.24908	594.81899	-353.85554	1219.96527	740.71558	-319.01926	1216.50533	600.67710	-307.98603	1422.98039	955.23403	-59.76346	1229.26952	993.70431	-123.35135	1410.41844	922.99921	-307.77304	1216.87837	991.23177	-223.64848	1216.82380	1390.71691	-216.28523	1306.95069	1368.28442	-27.61073	1318.11604	1361.68343	-385.61411	1358.58391	1374.42860	-182.42570	1365.60551	1374.79336	-223.96839	1297.99425	1231.00729	33.93884	1229.17424	1027.68202	-25.92365	1231.47363	1045.21121	45.75873	1264.56096	915.92400	85.80132	1252.13432	776.53560	106.41324	1224.51079	784.29874	123.00543	1372.81956	1258.74585	-442.45314	1429.18386	1024.85722	-394.23019	1437.94086	1057.56960	-468.26488	1552.35263	1053.07656	-451.83831	1701.38356	1004.13242	-441.54473	1692.04638	980.15757	-466.16213	1342.80576	876.57423	-68.35010	1326.85230	857.37437	-273.31378	1353.21136	869.82609	-83.57794	1332.95522	865.79034	-247.54600	
